<svg width="30" height="30" viewBox="0 0 30 30" fill="none" xmlns="http://www.w3.org/2000/svg">
<path d="M14.8531 2.95386C7.80743 2.95101 2.10083 8.65476 2.10083 15.6947C2.10083 21.2617 5.67066 25.9939 10.6422 27.7318C11.3117 27.8999 11.2092 27.4241 11.2092 27.0994V24.8914C7.34304 25.3444 7.18634 22.7859 6.92708 22.3586C6.40286 21.464 5.16353 21.2361 5.5339 20.8087C6.41425 20.3557 7.3117 20.9227 8.35159 22.4583C9.10373 23.5723 10.571 23.3842 11.3146 23.199C11.477 22.5295 11.8246 21.9312 12.3032 21.4668C8.29746 20.7489 6.62793 18.3044 6.62793 15.3984C6.62793 13.9881 7.09232 12.6918 8.00401 11.6462C7.42281 9.92258 8.05814 8.44678 8.14361 8.22741C9.79889 8.07926 11.5197 9.4126 11.6536 9.51802C12.5938 9.26445 13.6679 9.13055 14.8702 9.13055C16.0781 9.13055 17.1551 9.27015 18.1038 9.52656C18.4257 9.28155 20.0212 8.13624 21.5597 8.27584C21.6423 8.49522 22.2634 9.93682 21.7164 11.6377C22.6394 12.6861 23.1095 13.9938 23.1095 15.407C23.1095 18.3187 21.4286 20.766 17.4115 21.4725C17.7556 21.8109 18.0288 22.2145 18.2151 22.6596C18.4015 23.1047 18.4973 23.5826 18.497 24.0651V27.2703C18.5198 27.5267 18.497 27.7803 18.9243 27.7803C23.9699 26.0794 27.6024 21.313 27.6024 15.6976C27.6024 8.65476 21.893 2.95386 14.8531 2.95386Z" fill="white"/>
</svg>
