<svg width="31" height="30" viewBox="0 0 31 30" fill="none" xmlns="http://www.w3.org/2000/svg">
<g clip-path="url(#clip0)">
<path d="M15.7337 1.36377C7.733 1.36377 1.24731 7.63329 1.24731 15.3674C1.24731 23.1014 7.733 29.371 15.7337 29.371C23.7344 29.371 30.2201 23.1014 30.2201 15.3674C30.2201 7.63329 23.7344 1.36377 15.7337 1.36377ZM12.1876 21.1716H9.25407V12.0459H12.1876V21.1716ZM10.7027 10.9256C9.77619 10.9256 9.17711 10.2911 9.17711 9.50627C9.17711 8.70544 9.79429 8.08987 10.7404 8.08987C11.6866 8.08987 12.266 8.70544 12.2841 9.50627C12.2841 10.2911 11.6866 10.9256 10.7027 10.9256ZM22.9015 21.1716H19.968V16.1142C19.968 14.937 19.5424 14.1377 18.4816 14.1377C17.6713 14.1377 17.1899 14.6789 16.9771 15.1996C16.8987 15.3849 16.8791 15.6474 16.8791 15.9085V21.1701H13.944V14.956C13.944 13.8168 13.9063 12.8642 13.8671 12.0444H16.4158L16.5501 13.312H16.6089C16.9952 12.7169 17.9414 11.8387 19.5243 11.8387C21.4543 11.8387 22.9015 13.0889 22.9015 15.7758V21.1716Z" fill="white"/>
</g>
<defs>
<clipPath id="clip0">
<rect width="30.18" height="29.174" fill="white" transform="translate(0.643799 0.780029)"/>
</clipPath>
</defs>
</svg>
