<svg width="30" height="27" viewBox="0 0 30 27" fill="none" xmlns="http://www.w3.org/2000/svg">
<g clip-path="url(#clip0)">
<path d="M14.5143 6.53109C16.6647 6.53109 18.6911 7.41631 20.176 8.80012V8.80421C20.176 8.13969 20.6575 7.637 21.323 7.637H21.492C22.5422 7.637 22.7525 8.55655 22.7525 8.84672L22.7569 19.1743C22.6839 19.851 23.5096 20.2009 23.9682 19.766C25.7507 18.0634 27.887 11.0046 22.8582 6.91771C18.1682 3.10302 11.8735 3.73322 8.52682 5.87474C4.96973 8.15685 2.69604 13.1976 4.90459 17.9351C7.31647 23.1001 14.2115 24.6409 18.3152 23.1042C20.3926 22.3252 21.3503 24.9294 19.191 25.7819C15.9368 27.0709 6.86754 26.9393 2.63178 20.1281C-0.229912 15.5271 -0.0785095 7.43347 7.51453 3.24034C13.318 0.0305057 20.9753 0.91981 25.5913 5.39494C30.4151 10.0777 30.1361 18.8391 25.4267 22.2451C23.2939 23.7941 20.1268 22.2876 20.1496 20.0309L20.1259 19.2952C18.6409 20.6611 16.6647 21.4621 14.5143 21.4621C10.26 21.4621 6.51456 17.9833 6.51456 14.037C6.51456 10.0483 10.26 6.53273 14.5143 6.53273V6.53109ZM19.8653 13.7518C19.7042 10.8607 17.3936 9.11972 14.6014 9.11972H14.4958C11.2776 9.11972 9.48981 11.4738 9.48981 14.1425C9.48981 17.1349 11.6491 19.0247 14.4826 19.0247C17.6453 19.0247 19.7218 16.8758 19.8732 14.3338L19.8653 13.7518Z" fill="white"/>
</g>
<defs>
<clipPath id="clip0">
<rect width="28.168" height="26.156" fill="white" transform="translate(0.91748 0.792236)"/>
</clipPath>
</defs>
</svg>
